# xmcd
#
# Track frame offsets:
#	150
#	21184
#	38742
#	51628
#	62936
#	88820
#	108202
#	127842
#	158410
#	177280
#	193094
#	207177
#	223572
#	249445
#	267013
#	282587
#	301839
#
# Disc length: 4154 seconds
#
# Revision: 1
# Processed by: cddbd v1.5.1PL0 Copyright (c) Steve Scherf et al.
# Submitted via: EasyCDDAExtractor 7.0.5.4
#
DISCID=ef103811
DTITLE=John-Alex Mason - Walking Tracks
DYEAR=2000
DGENRE=Blues
TTITLE0=Walking Tracks
TTITLE1=Good Love
TTITLE2=One Last Sunrise
TTITLE3=Stop Breaking Down
TTITLE4=Hometown
TTITLE5=Suburban Blues
TTITLE6=Wandering Wondering Blues
TTITLE7=Oh Brother
TTITLE8=Frankie and Albert
TTITLE9=New Shoe Blues
TTITLE10=My Sweet Rosanne
TTITLE11=Worried Blues
TTITLE12=100 Year Song
TTITLE13=From Four Until Late
TTITLE14=Freight Train
TTITLE15=Rabbit Song
TTITLE16=Lion and Elephant Song
EXTD=
EXTT0=
EXTT1=
EXTT2=
EXTT3=
EXTT4=
EXTT5=
EXTT6=
EXTT7=
EXTT8=
EXTT9=
EXTT10=
EXTT11=
EXTT12=
EXTT13=
EXTT14=
EXTT15=
EXTT16=
PLAYORDER=
